<?xml version="1.0" standalone="no"?>
<!DOCTYPE svg PUBLIC "-//W3C//DTD SVG 20010904//EN"
 "http://www.w3.org/TR/2001/REC-SVG-20010904/DTD/svg10.dtd">
<svg version="1.0" xmlns="http://www.w3.org/2000/svg"
 width="3906.000000pt" height="957.000000pt" viewBox="0 0 3906.000000 957.000000"
 preserveAspectRatio="xMidYMid meet">
<metadata>
Created by potrace 1.15, written by Peter Selinger 2001-2017
</metadata>
<g transform="translate(0.000000,957.000000) scale(0.100000,-0.100000)"
fill="#000000" stroke="none">
<path d="M5266 9535 c-9 -19 -21 -37 -26 -40 -6 -4 -19 -24 -30 -45 -11 -21
-26 -44 -34 -52 -8 -8 -23 -30 -33 -49 -10 -19 -29 -50 -43 -69 -27 -38 -42
-60 -68 -104 -9 -16 -26 -40 -38 -55 -11 -14 -33 -48 -49 -76 -16 -27 -32 -54
-37 -60 -5 -5 -23 -32 -41 -59 -18 -27 -37 -57 -42 -65 -6 -9 -28 -43 -49 -76
-22 -33 -44 -63 -50 -67 -6 -4 -7 -8 -3 -8 4 0 3 -6 -3 -12 -15 -19 -131 -195
-159 -242 -13 -23 -27 -43 -31 -46 -4 -3 -18 -24 -31 -46 -28 -49 -143 -224
-158 -241 -6 -7 -11 -17 -11 -23 0 -7 -256 -10 -815 -10 -537 0 -815 3 -815
10 0 7 -330 10 -969 10 l-970 0 -12 -35 c-7 -19 -16 -35 -20 -35 -3 0 -17 -31
-29 -70 -12 -38 -26 -70 -30 -70 -4 0 -15 -21 -25 -47 -10 -27 -30 -75 -45
-108 -14 -33 -33 -76 -40 -95 -8 -19 -17 -37 -20 -40 -3 -3 -17 -34 -29 -70
-13 -36 -29 -72 -36 -80 -7 -8 -22 -42 -34 -75 -13 -33 -26 -64 -30 -70 -13
-16 -61 -144 -61 -160 0 -13 568 -15 4915 -15 4165 0 4915 2 4915 14 0 7 -12
40 -27 72 -14 33 -26 62 -25 66 1 3 -5 12 -13 18 -8 7 -15 17 -15 22 0 5 -21
53 -46 106 -133 278 -153 320 -165 355 -7 20 -16 37 -20 37 -4 0 -12 14 -18
30 -5 17 -27 66 -48 109 l-38 78 -340 8 c-187 4 -369 9 -405 11 -36 2 -523 3
-1082 3 -964 1 -1017 2 -1011 19 3 9 13 26 22 37 10 11 23 34 31 50 8 17 26
48 41 70 14 22 32 55 40 73 8 17 17 32 20 32 4 0 19 24 34 53 14 28 44 81 66
117 21 36 45 76 51 90 7 14 24 43 38 65 14 22 32 54 40 70 8 17 26 46 39 65
12 19 27 44 32 55 6 11 25 45 44 75 19 30 44 73 56 95 12 22 28 48 37 58 8 9
11 17 6 17 -5 0 -4 4 1 8 6 4 20 28 33 55 13 26 28 47 33 47 5 0 9 9 9 20 0
11 -5 20 -11 20 -37 0 -207 23 -224 30 -11 5 -76 14 -145 21 -69 7 -127 15
-130 19 -3 4 -84 15 -180 25 -96 10 -177 21 -180 25 -3 4 -81 15 -175 25 -93
9 -174 21 -180 25 -5 4 -86 15 -180 25 -93 9 -174 21 -180 25 -5 4 -68 13
-140 20 -71 7 -132 16 -135 20 -5 6 -383 51 -431 50 -21 0 -31 -8 -43 -35z
m-1156 -1780 c0 -3 -18 -35 -41 -70 l-41 -65 -594 0 -594 0 0 63 c0 35 3 67 7
70 7 8 1263 10 1263 2z m3720 -65 l0 -70 -590 0 c-324 0 -590 2 -590 5 0 6 59
107 72 123 8 9 132 12 559 12 l549 0 0 -70z"/>
<path d="M21500 6725 l0 -1425 525 0 525 0 0 1425 0 1425 -525 0 -525 0 0
-1425z"/>
<path d="M11220 6671 l0 -1371 540 0 540 0 0 415 0 415 228 -1 227 0 385 -414
385 -413 618 -1 c339 -1 617 3 617 7 0 5 -203 219 -451 476 -248 257 -449 469
-447 471 1 2 48 20 103 40 286 107 490 266 595 466 113 215 96 546 -39 750
-154 235 -445 398 -848 474 -247 47 -274 48 -1390 52 l-1063 4 0 -1370z m2053
671 c153 -42 242 -113 272 -217 40 -135 -26 -254 -176 -325 -127 -59 -161 -63
-636 -67 l-433 -4 0 321 0 321 448 -3 c422 -4 451 -5 525 -26z"/>
<path d="M16259 7459 c-678 -43 -1207 -411 -1316 -914 -24 -107 -21 -300 5
-408 88 -361 389 -636 852 -781 233 -72 428 -98 730 -98 506 1 899 119 1205
363 64 51 75 63 64 74 -11 10 -263 159 -521 309 l-47 27 -93 -54 c-102 -61
-206 -104 -313 -133 -57 -15 -105 -19 -255 -18 -173 0 -191 2 -275 28 -49 15
-115 41 -145 59 -72 41 -151 121 -184 185 l-26 52 990 0 990 0 0 146 c0 306
-85 537 -270 737 -290 312 -788 465 -1391 426z m313 -563 c91 -20 168 -58 232
-117 62 -57 97 -111 119 -186 l16 -53 -509 0 -510 0 19 50 c60 158 181 264
348 304 76 19 201 19 285 2z"/>
<path d="M28195 7459 c-255 -20 -466 -100 -666 -251 l-89 -68 0 140 0 140
-525 0 -525 0 0 -1060 0 -1060 524 0 525 0 3 613 c4 692 1 664 85 757 89 99
247 145 415 122 142 -21 243 -87 292 -191 21 -45 21 -56 24 -673 l3 -628 524
0 524 0 3 618 3 617 24 53 c67 148 272 236 477 204 190 -30 292 -125 314 -295
5 -39 10 -325 10 -634 l0 -563 526 0 525 0 -3 758 c-4 736 -5 759 -25 833 -37
132 -85 214 -182 309 -94 93 -185 148 -321 194 -298 99 -717 93 -1034 -14
-112 -38 -282 -127 -374 -196 l-74 -54 -45 50 c-183 204 -542 310 -938 279z"/>
<path d="M19561 7449 c-132 -14 -325 -56 -455 -99 -444 -149 -754 -436 -847
-787 -30 -111 -30 -297 -1 -408 78 -298 309 -550 652 -714 264 -126 540 -183
885 -183 458 0 794 87 1084 280 89 60 234 189 229 204 -4 11 -675 358 -692
358 -6 0 -38 -20 -71 -45 -74 -56 -200 -119 -280 -141 -93 -25 -287 -30 -382
-9 -177 38 -313 136 -380 273 -37 73 -38 80 -38 181 0 99 2 111 32 174 59 125
195 230 353 273 47 13 101 18 195 18 197 0 323 -42 459 -152 32 -26 64 -51 71
-56 8 -6 127 51 368 178 l356 187 -16 25 c-23 36 -147 140 -233 197 -203 133
-467 217 -769 247 -122 12 -400 11 -520 -1z"/>
<path d="M24075 7439 c-243 -16 -505 -59 -734 -119 -63 -17 -117 -32 -119 -35
-5 -5 196 -504 209 -519 5 -5 62 4 138 23 249 60 370 75 641 75 203 1 257 -2
315 -17 195 -50 298 -142 312 -282 3 -30 4 -55 2 -55 -2 0 -49 9 -104 19 -194
38 -372 54 -600 54 -359 0 -598 -43 -813 -149 -97 -47 -125 -67 -191 -132
-120 -120 -161 -219 -161 -387 0 -170 41 -267 165 -390 120 -120 268 -191 497
-237 98 -20 143 -23 338 -23 193 0 241 4 338 23 182 37 317 89 455 178 l67 44
0 -105 0 -105 520 0 520 0 0 678 c0 776 -1 788 -82 950 -77 156 -254 306 -450
382 -308 119 -746 164 -1263 129z m530 -1229 c50 -6 125 -18 169 -27 l78 -16
-4 -86 c-3 -63 -10 -98 -27 -129 -70 -136 -242 -215 -471 -216 -92 -1 -129 3
-185 21 -116 37 -185 112 -185 201 0 56 15 90 58 135 99 103 306 146 567 117z"/>
<path d="M32675 7439 c-243 -16 -505 -59 -734 -119 -63 -17 -117 -32 -119 -35
-5 -5 196 -504 209 -519 5 -5 62 4 138 23 249 60 370 75 641 75 203 1 257 -2
315 -17 195 -50 298 -142 312 -282 3 -30 4 -55 2 -55 -2 0 -49 9 -104 19 -194
38 -372 54 -600 54 -359 0 -598 -43 -813 -149 -97 -47 -125 -67 -191 -132
-120 -120 -161 -219 -161 -387 0 -170 41 -267 165 -390 120 -120 268 -191 497
-237 98 -20 143 -23 338 -23 193 0 241 4 338 23 182 37 317 89 455 178 l67 44
0 -105 0 -105 520 0 520 0 0 678 c0 776 -1 788 -82 950 -77 156 -254 306 -450
382 -308 119 -746 164 -1263 129z m530 -1229 c50 -6 125 -18 169 -27 l78 -16
-4 -86 c-3 -63 -10 -98 -27 -129 -70 -136 -242 -215 -471 -216 -92 -1 -129 3
-185 21 -116 37 -185 112 -185 201 0 56 15 90 58 135 99 103 306 146 567 117z"/>
<path d="M420 6610 l0 -330 4915 0 4915 0 0 330 0 330 -4915 0 -4915 0 0 -330z"/>
<path d="M1145 6072 c-6 -5 -32 -17 -59 -27 -27 -10 -56 -25 -66 -34 -9 -9
-26 -23 -36 -32 -22 -19 -84 -89 -84 -96 0 -2 -12 -30 -27 -61 l-28 -57 0
-2655 0 -2655 27 -57 c16 -31 28 -59 28 -62 0 -3 10 -16 22 -29 13 -13 33 -34
44 -48 40 -44 74 -67 129 -88 l56 -21 4183 0 c4086 0 4184 0 4238 19 59 20 82
36 132 90 17 19 38 41 47 50 9 9 24 36 33 61 10 25 23 48 29 52 17 10 17 5366
0 5376 -6 4 -19 27 -29 52 -9 25 -24 51 -32 58 -9 6 -13 12 -10 12 7 0 -56 64
-89 91 -11 9 -42 24 -69 34 -27 10 -53 22 -58 27 -13 11 -8369 11 -8381 0z
m4770 -534 c-2 -13 -14 -99 -25 -193 -31 -261 -88 -732 -110 -910 -11 -88 -40
-329 -65 -535 -57 -473 -99 -817 -127 -1037 l-21 -173 -326 0 -326 0 -18 168
c-54 503 -83 770 -168 1542 -16 151 -43 399 -59 550 -16 151 -36 333 -45 404
-8 71 -14 131 -12 132 1 1 92 7 202 13 110 6 310 18 445 26 400 25 521 32 593
34 65 1 67 0 62 -21z m-308 -3574 c21 -16 48 -50 61 -74 21 -42 22 -55 22
-290 0 -235 -1 -248 -22 -290 -14 -26 -41 -57 -66 -75 l-44 -30 -246 -3 c-159
-2 -260 1 -284 8 -49 14 -94 53 -121 104 -20 38 -22 57 -25 260 -4 235 2 285
43 347 13 20 43 46 67 58 41 21 53 21 310 19 l266 -3 39 -31z"/>
<path d="M28430 2895 l0 -255 490 0 490 0 0 255 0 255 -490 0 -490 0 0 -255z"/>
<path d="M15320 3080 c-506 -53 -920 -229 -1206 -514 -170 -169 -265 -331
-317 -536 -32 -129 -30 -359 6 -491 141 -533 690 -922 1427 -1014 146 -18 475
-20 636 -4 427 42 786 184 1074 424 82 69 136 123 129 129 -8 7 -707 366 -714
366 -4 0 -52 -34 -106 -75 -178 -134 -335 -195 -562 -217 -204 -20 -380 11
-556 98 -264 130 -412 405 -357 664 56 265 281 460 607 526 114 23 369 15 484
-16 114 -30 285 -117 381 -193 l81 -65 354 199 c195 109 359 200 364 203 14 6
-99 108 -204 183 -220 159 -496 264 -826 315 -148 22 -550 33 -695 18z"/>
<path d="M21910 2513 c-230 -36 -405 -109 -557 -232 l-63 -51 0 125 0 125
-470 0 -470 0 0 -965 0 -965 470 0 469 0 3 572 3 573 30 54 c38 69 100 116
188 143 57 17 87 20 172 16 91 -4 112 -9 169 -37 71 -35 115 -82 144 -153 15
-39 17 -100 20 -605 l3 -563 469 0 470 0 0 548 c0 618 0 615 71 696 70 79 166
116 305 116 155 0 270 -58 327 -165 22 -40 22 -47 25 -618 l3 -577 474 0 475
0 0 638 c0 660 -5 757 -41 866 -75 221 -273 374 -569 439 -131 29 -471 31
-600 4 -189 -40 -369 -118 -518 -224 l-76 -55 -34 41 c-101 122 -309 219 -537
250 -72 10 -300 13 -355 4z"/>
<path d="M26620 2505 c-182 -30 -346 -99 -492 -207 l-78 -58 0 120 0 120 -470
0 -470 0 0 -1240 0 -1240 470 0 470 0 0 385 c0 212 2 385 5 385 2 0 28 -18 57
-40 117 -89 295 -163 473 -196 124 -24 396 -24 525 0 521 95 862 425 912 883
44 406 -160 771 -540 962 -76 39 -239 94 -342 116 -106 23 -408 29 -520 10z
m120 -579 c145 -40 270 -136 325 -251 26 -53 29 -71 30 -155 0 -87 -3 -101
-32 -163 -57 -119 -181 -212 -338 -252 -76 -19 -241 -19 -324 0 -143 34 -281
137 -337 252 -26 52 -29 68 -29 158 0 93 2 105 32 166 61 123 198 221 359 254
82 17 232 13 314 -9z"/>
<path d="M31435 2509 c-165 -24 -361 -105 -489 -202 -38 -29 -77 -58 -88 -66
-17 -13 -18 -8 -18 113 l0 126 -470 0 -470 0 0 -965 0 -965 470 0 470 0 0 553
c0 636 -2 616 85 703 68 68 138 95 268 102 157 8 274 -36 343 -129 53 -72 54
-88 54 -681 l0 -548 470 0 470 0 0 683 c0 643 -1 688 -19 759 -74 289 -308
466 -684 517 -91 13 -305 12 -392 0z"/>
<path d="M36785 2513 c-365 -29 -620 -124 -773 -287 -78 -83 -119 -167 -134
-273 -26 -182 33 -331 176 -439 139 -105 339 -174 736 -254 216 -44 344 -76
391 -100 77 -40 76 -105 -4 -140 -161 -69 -642 4 -980 151 -50 21 -94 39 -98
39 -5 0 -77 -80 -160 -177 -84 -98 -163 -190 -177 -205 l-25 -28 105 -50 c542
-259 1402 -315 1857 -121 206 88 346 237 382 409 19 93 7 236 -25 303 -88 186
-306 303 -751 403 -501 113 -560 133 -580 190 -8 25 -6 31 22 56 67 60 253 62
527 4 97 -21 346 -95 428 -129 13 -5 51 39 179 209 89 119 160 218 157 221
-13 14 -230 92 -337 121 -281 78 -661 118 -916 97z"/>
<path d="M18375 2504 c-273 -16 -521 -53 -728 -108 -70 -18 -131 -36 -134 -39
-6 -6 5 -34 119 -314 l70 -171 66 19 c211 60 498 95 716 86 207 -9 326 -46
406 -129 58 -59 98 -207 53 -194 -34 9 -179 36 -268 48 -138 20 -585 17 -705
-4 -411 -73 -639 -242 -681 -506 -44 -274 121 -506 436 -611 372 -124 861 -77
1153 112 l72 47 0 -95 0 -95 471 0 470 0 -3 632 c-4 615 -5 635 -26 712 -12
44 -33 102 -46 130 -115 250 -426 416 -871 466 -96 11 -471 20 -570 14z m356
-1125 c57 -5 135 -17 173 -26 l68 -15 -4 -77 c-6 -91 -28 -140 -91 -198 -51
-47 -70 -58 -143 -83 -187 -65 -410 -37 -498 61 -100 110 -27 263 151 315 108
31 203 38 344 23z"/>
<path d="M33965 2504 c-273 -16 -521 -53 -728 -108 -70 -18 -131 -36 -134 -39
-6 -6 5 -34 119 -314 l70 -171 66 19 c211 60 498 95 716 86 207 -9 326 -46
406 -129 58 -59 98 -207 53 -194 -34 9 -179 36 -268 48 -138 20 -585 17 -705
-4 -411 -73 -639 -242 -681 -506 -44 -274 121 -506 436 -611 372 -124 861 -77
1153 112 l72 47 0 -95 0 -95 471 0 470 0 -3 632 c-4 615 -5 635 -26 712 -12
44 -33 102 -46 130 -115 250 -426 416 -871 466 -96 11 -471 20 -570 14z m356
-1125 c57 -5 135 -17 173 -26 l68 -15 -4 -77 c-6 -91 -28 -140 -91 -198 -51
-47 -70 -58 -143 -83 -187 -65 -410 -37 -498 61 -100 110 -27 263 151 315 108
31 203 38 344 23z"/>
<path d="M28440 1515 l0 -965 475 0 475 0 0 965 0 965 -475 0 -475 0 0 -965z"/>
</g>
</svg>
